<svg width="952" height="86" viewBox="0 0 952 86" fill="none" xmlns="http://www.w3.org/2000/svg">
<g clip-path="url(#clip0_4093_19171)">
<mask id="path-1-inside-1_4093_19171" fill="white">
<path d="M0 10C0 4.47715 4.47715 0 10 0H942C947.523 0 952 4.47715 952 10V86H0V10Z"/>
</mask>
<path d="M0 10C0 4.47715 4.47715 0 10 0H942C947.523 0 952 4.47715 952 10V86H0V10Z" fill="#D6E3FB"/>
<rect x="6" y="6" width="28" height="28" rx="8" fill="white"/>
<path d="M16 18L20 22L24 18" stroke="#202125" stroke-width="1.5"/>
<path d="M40 16C40 10.4772 44.4772 6 50 6H262C267.523 6 272 10.4772 272 16V40H40V16Z" fill="white"/>
<path d="M74.232 25H73.272V16.42H74.232V20.116H78.816V16.42H79.776V25H78.816V20.968H74.232V25ZM84.5269 25.192C83.9589 25.192 83.4509 25.056 83.0029 24.784C82.5549 24.512 82.2029 24.14 81.9469 23.668C81.6989 23.196 81.5749 22.656 81.5749 22.048C81.5749 21.44 81.6989 20.9 81.9469 20.428C82.2029 19.956 82.5549 19.584 83.0029 19.312C83.4509 19.04 83.9589 18.904 84.5269 18.904C85.1029 18.904 85.6149 19.04 86.0629 19.312C86.5109 19.584 86.8589 19.956 87.1069 20.428C87.3629 20.9 87.4909 21.44 87.4909 22.048C87.4909 22.656 87.3629 23.196 87.1069 23.668C86.8589 24.14 86.5109 24.512 86.0629 24.784C85.6149 25.056 85.1029 25.192 84.5269 25.192ZM84.5269 24.388C84.9269 24.388 85.2749 24.288 85.5709 24.088C85.8669 23.888 86.0989 23.612 86.2669 23.26C86.4349 22.908 86.5189 22.504 86.5189 22.048C86.5189 21.584 86.4349 21.18 86.2669 20.836C86.0989 20.484 85.8669 20.208 85.5709 20.008C85.2749 19.808 84.9269 19.708 84.5269 19.708C84.1349 19.708 83.7909 19.808 83.4949 20.008C83.1989 20.208 82.9669 20.484 82.7989 20.836C82.6309 21.18 82.5469 21.584 82.5469 22.048C82.5469 22.504 82.6309 22.908 82.7989 23.26C82.9669 23.612 83.1989 23.888 83.4949 24.088C83.7909 24.288 84.1349 24.388 84.5269 24.388ZM89.0339 25V19.096H91.8539C92.4299 19.096 92.8939 19.236 93.2459 19.516C93.6059 19.788 93.7859 20.168 93.7859 20.656C93.7859 21.232 93.5259 21.644 93.0059 21.892C93.3339 22.02 93.5859 22.204 93.7619 22.444C93.9459 22.684 94.0379 22.96 94.0379 23.272C94.0379 23.608 93.9459 23.908 93.7619 24.172C93.5859 24.428 93.3419 24.632 93.0299 24.784C92.7179 24.928 92.3619 25 91.9619 25H89.0339ZM91.8539 19.876H89.9579V21.532H91.8539C92.1419 21.532 92.3739 21.46 92.5499 21.316C92.7339 21.172 92.8259 20.964 92.8259 20.692C92.8259 20.148 92.5019 19.876 91.8539 19.876ZM91.9619 22.312H89.9579V24.22H91.9619C92.3059 24.22 92.5779 24.136 92.7779 23.968C92.9779 23.8 93.0779 23.568 93.0779 23.272C93.0779 22.968 92.9779 22.732 92.7779 22.564C92.5859 22.396 92.3139 22.312 91.9619 22.312ZM97.2722 25.192C96.8562 25.192 96.4882 25.112 96.1682 24.952C95.8482 24.792 95.5962 24.572 95.4122 24.292C95.2362 24.004 95.1482 23.68 95.1482 23.32C95.1482 22.72 95.3762 22.244 95.8322 21.892C96.2962 21.54 96.9162 21.364 97.6922 21.364H99.3482V21.316C99.3482 20.82 99.1962 20.428 98.8922 20.14C98.5962 19.844 98.1882 19.696 97.6682 19.696C96.9882 19.696 96.4122 19.98 95.9402 20.548L95.3402 19.96C96.0122 19.256 96.8082 18.904 97.7282 18.904C98.2322 18.904 98.6722 19.004 99.0482 19.204C99.4242 19.396 99.7162 19.672 99.9242 20.032C100.132 20.384 100.236 20.8 100.236 21.28V25H99.3602V24.196C99.1362 24.5 98.8442 24.744 98.4842 24.928C98.1242 25.104 97.7202 25.192 97.2722 25.192ZM97.4042 24.424C97.8682 24.424 98.2722 24.308 98.6162 24.076C98.9602 23.836 99.2042 23.52 99.3482 23.128V22.108H97.8002C97.2642 22.108 96.8482 22.212 96.5522 22.42C96.2562 22.62 96.1082 22.908 96.1082 23.284C96.1082 23.628 96.2242 23.904 96.4562 24.112C96.6962 24.32 97.0122 24.424 97.4042 24.424ZM101.628 25L103.44 22.648C102.96 22.568 102.576 22.372 102.288 22.06C102 21.748 101.856 21.356 101.856 20.884C101.856 20.356 102.048 19.928 102.432 19.6C102.824 19.264 103.324 19.096 103.932 19.096H106.572V25H105.648V22.684H104.448L102.708 25H101.628ZM103.932 21.904H105.648V19.876H103.932C103.58 19.876 103.304 19.964 103.104 20.14C102.904 20.316 102.804 20.564 102.804 20.884C102.804 21.204 102.904 21.456 103.104 21.64C103.304 21.816 103.58 21.904 103.932 21.904ZM111.066 25V19.096H113.886C114.462 19.096 114.926 19.236 115.278 19.516C115.638 19.788 115.818 20.168 115.818 20.656C115.818 21.232 115.558 21.644 115.038 21.892C115.366 22.02 115.618 22.204 115.794 22.444C115.978 22.684 116.07 22.96 116.07 23.272C116.07 23.608 115.978 23.908 115.794 24.172C115.618 24.428 115.374 24.632 115.062 24.784C114.75 24.928 114.394 25 113.994 25H111.066ZM113.886 19.876H111.99V21.532H113.886C114.174 21.532 114.406 21.46 114.582 21.316C114.766 21.172 114.858 20.964 114.858 20.692C114.858 20.148 114.534 19.876 113.886 19.876ZM113.994 22.312H111.99V24.22H113.994C114.338 24.22 114.61 24.136 114.81 23.968C115.01 23.8 115.11 23.568 115.11 23.272C115.11 22.968 115.01 22.732 114.81 22.564C114.618 22.396 114.346 22.312 113.994 22.312ZM117.567 25V19.096H118.491V21.664L121.107 19.096H122.331L119.379 21.976L122.607 25H121.311L118.491 22.312V25H117.567ZM123.083 25V24.208H123.575C123.759 24.208 123.899 24.152 123.995 24.04C124.091 23.92 124.151 23.712 124.175 23.416L124.523 19.096H128.519V25H127.595V19.876H125.375L125.051 23.548C125.003 24.084 124.871 24.46 124.655 24.676C124.447 24.892 124.123 25 123.683 25H123.083ZM132.06 25.192C131.644 25.192 131.276 25.112 130.956 24.952C130.636 24.792 130.384 24.572 130.2 24.292C130.024 24.004 129.936 23.68 129.936 23.32C129.936 22.72 130.164 22.244 130.62 21.892C131.084 21.54 131.704 21.364 132.48 21.364H134.136V21.316C134.136 20.82 133.984 20.428 133.68 20.14C133.384 19.844 132.976 19.696 132.456 19.696C131.776 19.696 131.2 19.98 130.728 20.548L130.128 19.96C130.8 19.256 131.596 18.904 132.516 18.904C133.02 18.904 133.46 19.004 133.836 19.204C134.212 19.396 134.504 19.672 134.712 20.032C134.92 20.384 135.024 20.8 135.024 21.28V25H134.148V24.196C133.924 24.5 133.632 24.744 133.272 24.928C132.912 25.104 132.508 25.192 132.06 25.192ZM132.192 24.424C132.656 24.424 133.06 24.308 133.404 24.076C133.748 23.836 133.992 23.52 134.136 23.128V22.108H132.588C132.052 22.108 131.636 22.212 131.34 22.42C131.044 22.62 130.896 22.908 130.896 23.284C130.896 23.628 131.012 23.904 131.244 24.112C131.484 24.32 131.8 24.424 132.192 24.424ZM135.96 26.524V24.22H136.452C136.652 24.22 136.792 24.136 136.872 23.968C136.96 23.792 137.028 23.48 137.076 23.032L137.508 19.096H141.396V24.22H142.152V26.524H141.276V25H136.836V26.524H135.96ZM137.964 23.104C137.9 23.608 137.8 23.98 137.664 24.22H140.472V19.876H138.348L137.964 23.104ZM143.595 25V19.096H144.519V21.664L147.135 19.096H148.359L145.407 21.976L148.635 25H147.339L144.519 22.312V25H143.595ZM151.036 25.192C150.62 25.192 150.252 25.112 149.932 24.952C149.612 24.792 149.36 24.572 149.176 24.292C149 24.004 148.912 23.68 148.912 23.32C148.912 22.72 149.14 22.244 149.596 21.892C150.06 21.54 150.68 21.364 151.456 21.364H153.112V21.316C153.112 20.82 152.96 20.428 152.656 20.14C152.36 19.844 151.952 19.696 151.432 19.696C150.752 19.696 150.176 19.98 149.704 20.548L149.104 19.96C149.776 19.256 150.572 18.904 151.492 18.904C151.996 18.904 152.436 19.004 152.812 19.204C153.188 19.396 153.48 19.672 153.688 20.032C153.896 20.384 154 20.8 154 21.28V25H153.124V24.196C152.9 24.5 152.608 24.744 152.248 24.928C151.888 25.104 151.484 25.192 151.036 25.192ZM151.168 24.424C151.632 24.424 152.036 24.308 152.38 24.076C152.724 23.836 152.968 23.52 153.112 23.128V22.108H151.564C151.028 22.108 150.612 22.212 150.316 22.42C150.02 22.62 149.872 22.908 149.872 23.284C149.872 23.628 149.988 23.904 150.22 24.112C150.46 24.32 150.776 24.424 151.168 24.424Z" fill="#202125"/>
<rect width="34" height="34" transform="translate(238 6)" fill="white"/>
<path fill-rule="evenodd" clip-rule="evenodd" d="M259.559 17.591L260.089 17.0606L259.028 16L258.498 16.5303L256.045 18.9839L253.591 16.5303L253.061 16L252 17.0606L252.53 17.591L254.984 20.0446L252.53 22.4984L252 23.0288L253.061 24.0894L253.591 23.5591L256.045 21.1053L258.498 23.5591L259.028 24.0894L260.089 23.0288L259.559 22.4984L257.105 20.0446L259.559 17.591Z" fill="#202125"/>
<g clip-path="url(#clip1_4093_19171)">
<path fill-rule="evenodd" clip-rule="evenodd" d="M57.0729 16.5C55.5235 16.5 54.2087 17.5121 53.749 18.9098L51.7284 15.4092C53.0123 13.9363 54.897 13 57 13C59.5847 13 61.8405 14.4111 63.0532 16.5H57.0729ZM59.4062 20.0003C59.4062 21.289 58.3616 22.3337 57.0729 22.3337C55.7842 22.3337 54.7396 21.289 54.7396 20.0003C54.7396 18.7117 55.7842 17.667 57.0729 17.667C58.3616 17.667 59.4062 18.7117 59.4062 20.0003ZM57.7893 23.4259C57.5577 23.4744 57.3185 23.5 57.0729 23.5C55.7797 23.5 54.6515 22.7936 54.0454 21.7483L54.0419 21.75L50.9794 16.4463C50.3617 17.4893 50 18.7021 50 20C50 23.4469 52.506 26.3123 55.7902 26.888L57.7893 23.4259ZM60.5729 20.0003C60.5729 19.1032 60.231 18.2871 59.6745 17.667H63.5916C63.8512 18.3979 64 19.1813 64 20.0003C64 23.8346 60.9001 26.9554 57.0752 26.9963L60.1039 21.7503L60.1004 21.7486C60.399 21.2335 60.5729 20.6373 60.5729 20.0003Z" fill="#202125"/>
</g>
<path d="M28 39.9893C28.1658 39.9964 28.3325 40 28.5 40C34.8513 40 40 34.8513 40 28.5C40 28.3325 39.9964 28.1658 39.9893 28H40V28.5V40H28.5H28V39.9893Z" fill="white"/>
<path d="M284 39.9893C283.834 39.9964 283.668 40 283.5 40C277.149 40 272 34.8513 272 28.5C272 28.3325 272.004 28.1658 272.011 28H272V28.5V40H283.5H284V39.9893Z" fill="white"/>
<g clip-path="url(#clip2_4093_19171)">
<rect x="275.97" y="6" width="232" height="28" rx="9" fill="#D6E3FB"/>
<path d="M310.202 25H309.242V16.42H310.202V20.116H314.786V16.42H315.746V25H314.786V20.968H310.202V25ZM320.497 25.192C319.929 25.192 319.421 25.056 318.973 24.784C318.525 24.512 318.173 24.14 317.917 23.668C317.669 23.196 317.545 22.656 317.545 22.048C317.545 21.44 317.669 20.9 317.917 20.428C318.173 19.956 318.525 19.584 318.973 19.312C319.421 19.04 319.929 18.904 320.497 18.904C321.073 18.904 321.585 19.04 322.033 19.312C322.481 19.584 322.829 19.956 323.077 20.428C323.333 20.9 323.461 21.44 323.461 22.048C323.461 22.656 323.333 23.196 323.077 23.668C322.829 24.14 322.481 24.512 322.033 24.784C321.585 25.056 321.073 25.192 320.497 25.192ZM320.497 24.388C320.897 24.388 321.245 24.288 321.541 24.088C321.837 23.888 322.069 23.612 322.237 23.26C322.405 22.908 322.489 22.504 322.489 22.048C322.489 21.584 322.405 21.18 322.237 20.836C322.069 20.484 321.837 20.208 321.541 20.008C321.245 19.808 320.897 19.708 320.497 19.708C320.105 19.708 319.761 19.808 319.465 20.008C319.169 20.208 318.937 20.484 318.769 20.836C318.601 21.18 318.517 21.584 318.517 22.048C318.517 22.504 318.601 22.908 318.769 23.26C318.937 23.612 319.169 23.888 319.465 24.088C319.761 24.288 320.105 24.388 320.497 24.388ZM325.004 25V19.096H327.824C328.4 19.096 328.864 19.236 329.216 19.516C329.576 19.788 329.756 20.168 329.756 20.656C329.756 21.232 329.496 21.644 328.976 21.892C329.304 22.02 329.556 22.204 329.732 22.444C329.916 22.684 330.008 22.96 330.008 23.272C330.008 23.608 329.916 23.908 329.732 24.172C329.556 24.428 329.312 24.632 329 24.784C328.688 24.928 328.332 25 327.932 25H325.004ZM327.824 19.876H325.928V21.532H327.824C328.112 21.532 328.344 21.46 328.52 21.316C328.704 21.172 328.796 20.964 328.796 20.692C328.796 20.148 328.472 19.876 327.824 19.876ZM327.932 22.312H325.928V24.22H327.932C328.276 24.22 328.548 24.136 328.748 23.968C328.948 23.8 329.048 23.568 329.048 23.272C329.048 22.968 328.948 22.732 328.748 22.564C328.556 22.396 328.284 22.312 327.932 22.312ZM333.242 25.192C332.826 25.192 332.458 25.112 332.138 24.952C331.818 24.792 331.566 24.572 331.382 24.292C331.206 24.004 331.118 23.68 331.118 23.32C331.118 22.72 331.346 22.244 331.802 21.892C332.266 21.54 332.886 21.364 333.662 21.364H335.318V21.316C335.318 20.82 335.166 20.428 334.862 20.14C334.566 19.844 334.158 19.696 333.638 19.696C332.958 19.696 332.382 19.98 331.91 20.548L331.31 19.96C331.982 19.256 332.778 18.904 333.698 18.904C334.202 18.904 334.642 19.004 335.018 19.204C335.394 19.396 335.686 19.672 335.894 20.032C336.102 20.384 336.206 20.8 336.206 21.28V25H335.33V24.196C335.106 24.5 334.814 24.744 334.454 24.928C334.094 25.104 333.69 25.192 333.242 25.192ZM333.374 24.424C333.838 24.424 334.242 24.308 334.586 24.076C334.93 23.836 335.174 23.52 335.318 23.128V22.108H333.77C333.234 22.108 332.818 22.212 332.522 22.42C332.226 22.62 332.078 22.908 332.078 23.284C332.078 23.628 332.194 23.904 332.426 24.112C332.666 24.32 332.982 24.424 333.374 24.424ZM337.598 25L339.41 22.648C338.93 22.568 338.546 22.372 338.258 22.06C337.97 21.748 337.826 21.356 337.826 20.884C337.826 20.356 338.018 19.928 338.402 19.6C338.794 19.264 339.294 19.096 339.902 19.096H342.542V25H341.618V22.684H340.418L338.678 25H337.598ZM339.902 21.904H341.618V19.876H339.902C339.55 19.876 339.274 19.964 339.074 20.14C338.874 20.316 338.774 20.564 338.774 20.884C338.774 21.204 338.874 21.456 339.074 21.64C339.274 21.816 339.55 21.904 339.902 21.904ZM347.035 25V19.096H349.855C350.431 19.096 350.895 19.236 351.247 19.516C351.607 19.788 351.787 20.168 351.787 20.656C351.787 21.232 351.527 21.644 351.007 21.892C351.335 22.02 351.587 22.204 351.763 22.444C351.947 22.684 352.039 22.96 352.039 23.272C352.039 23.608 351.947 23.908 351.763 24.172C351.587 24.428 351.343 24.632 351.031 24.784C350.719 24.928 350.363 25 349.963 25H347.035ZM349.855 19.876H347.959V21.532H349.855C350.143 21.532 350.375 21.46 350.551 21.316C350.735 21.172 350.827 20.964 350.827 20.692C350.827 20.148 350.503 19.876 349.855 19.876ZM349.963 22.312H347.959V24.22H349.963C350.307 24.22 350.579 24.136 350.779 23.968C350.979 23.8 351.079 23.568 351.079 23.272C351.079 22.968 350.979 22.732 350.779 22.564C350.587 22.396 350.315 22.312 349.963 22.312ZM353.536 25V19.096H354.46V21.664L357.076 19.096H358.3L355.348 21.976L358.576 25H357.28L354.46 22.312V25H353.536ZM359.052 25V24.208H359.544C359.728 24.208 359.868 24.152 359.964 24.04C360.06 23.92 360.12 23.712 360.144 23.416L360.492 19.096H364.488V25H363.564V19.876H361.344L361.02 23.548C360.972 24.084 360.84 24.46 360.624 24.676C360.416 24.892 360.092 25 359.652 25H359.052ZM368.03 25.192C367.614 25.192 367.246 25.112 366.926 24.952C366.606 24.792 366.354 24.572 366.17 24.292C365.994 24.004 365.906 23.68 365.906 23.32C365.906 22.72 366.134 22.244 366.59 21.892C367.054 21.54 367.674 21.364 368.45 21.364H370.106V21.316C370.106 20.82 369.954 20.428 369.65 20.14C369.354 19.844 368.946 19.696 368.426 19.696C367.746 19.696 367.17 19.98 366.698 20.548L366.098 19.96C366.77 19.256 367.566 18.904 368.486 18.904C368.99 18.904 369.43 19.004 369.806 19.204C370.182 19.396 370.474 19.672 370.682 20.032C370.89 20.384 370.994 20.8 370.994 21.28V25H370.118V24.196C369.894 24.5 369.602 24.744 369.242 24.928C368.882 25.104 368.478 25.192 368.03 25.192ZM368.162 24.424C368.626 24.424 369.03 24.308 369.374 24.076C369.718 23.836 369.962 23.52 370.106 23.128V22.108H368.558C368.022 22.108 367.606 22.212 367.31 22.42C367.014 22.62 366.866 22.908 366.866 23.284C366.866 23.628 366.982 23.904 367.214 24.112C367.454 24.32 367.77 24.424 368.162 24.424ZM371.929 26.524V24.22H372.421C372.621 24.22 372.761 24.136 372.841 23.968C372.929 23.792 372.997 23.48 373.045 23.032L373.477 19.096H377.365V24.22H378.121V26.524H377.245V25H372.805V26.524H371.929ZM373.933 23.104C373.869 23.608 373.769 23.98 373.633 24.22H376.441V19.876H374.317L373.933 23.104ZM379.564 25V19.096H380.488V21.664L383.104 19.096H384.328L381.376 21.976L384.604 25H383.308L380.488 22.312V25H379.564ZM387.006 25.192C386.59 25.192 386.222 25.112 385.902 24.952C385.582 24.792 385.33 24.572 385.146 24.292C384.97 24.004 384.882 23.68 384.882 23.32C384.882 22.72 385.11 22.244 385.566 21.892C386.03 21.54 386.65 21.364 387.426 21.364H389.082V21.316C389.082 20.82 388.93 20.428 388.626 20.14C388.33 19.844 387.922 19.696 387.402 19.696C386.722 19.696 386.146 19.98 385.674 20.548L385.074 19.96C385.746 19.256 386.542 18.904 387.462 18.904C387.966 18.904 388.406 19.004 388.782 19.204C389.158 19.396 389.45 19.672 389.658 20.032C389.866 20.384 389.97 20.8 389.97 21.28V25H389.094V24.196C388.87 24.5 388.578 24.744 388.218 24.928C387.858 25.104 387.454 25.192 387.006 25.192ZM387.138 24.424C387.602 24.424 388.006 24.308 388.35 24.076C388.694 23.836 388.938 23.52 389.082 23.128V22.108H387.534C386.998 22.108 386.582 22.212 386.286 22.42C385.99 22.62 385.842 22.908 385.842 23.284C385.842 23.628 385.958 23.904 386.19 24.112C386.43 24.32 386.746 24.424 387.138 24.424Z" fill="#202125"/>
<rect width="34" height="28" transform="translate(473.97 6)" fill="#D6E3FB"/>
<path fill-rule="evenodd" clip-rule="evenodd" d="M495.528 17.591L496.059 17.0606L494.998 16L494.468 16.5303L492.014 18.9839L489.561 16.5303L489.031 16L487.97 17.0606L488.5 17.591L490.954 20.0446L488.5 22.4984L487.97 23.0288L489.03 24.0894L489.561 23.5591L492.014 21.1053L494.468 23.5591L494.998 24.0894L496.059 23.0288L495.529 22.4984L493.075 20.0446L495.528 17.591Z" fill="#202125"/>
<g clip-path="url(#clip3_4093_19171)">
<path fill-rule="evenodd" clip-rule="evenodd" d="M293.043 16.5C291.493 16.5 290.178 17.5121 289.719 18.9098L287.698 15.4092C288.982 13.9363 290.867 13 292.97 13C295.554 13 297.81 14.4111 299.023 16.5H293.043ZM295.376 20.0003C295.376 21.289 294.331 22.3337 293.043 22.3337C291.754 22.3337 290.709 21.289 290.709 20.0003C290.709 18.7117 291.754 17.667 293.043 17.667C294.331 17.667 295.376 18.7117 295.376 20.0003ZM293.759 23.4259C293.527 23.4744 293.288 23.5 293.043 23.5C291.749 23.5 290.621 22.7936 290.015 21.7483L290.012 21.75L286.949 16.4463C286.331 17.4893 285.97 18.7021 285.97 20C285.97 23.4469 288.476 26.3123 291.76 26.888L293.759 23.4259ZM296.543 20.0003C296.543 19.1032 296.201 18.2871 295.644 17.667H299.561C299.821 18.3979 299.97 19.1813 299.97 20.0003C299.97 23.8346 296.87 26.9554 293.045 26.9963L296.074 21.7503L296.07 21.7486C296.369 21.2335 296.543 20.6373 296.543 20.0003Z" fill="#202125"/>
</g>
</g>
<path d="M511.939 13L511.939 27" stroke="#AEC6F6" stroke-width="2" stroke-linecap="round"/>
<path fill-rule="evenodd" clip-rule="evenodd" d="M529.189 20.75V25H530.689V20.75H534.939V19.25H530.689V15H529.189V19.25H524.939V20.75H529.189Z" fill="#202125"/>
<path d="M856.939 20H868.939" stroke="#202125" stroke-width="1.5"/>
<rect x="893.689" y="14.75" width="10.5" height="10.5" stroke="#202125" stroke-width="1.5"/>
<path fill-rule="evenodd" clip-rule="evenodd" d="M933.409 20.0001L928.939 24.4697L930 25.5304L934.47 21.0607L938.939 25.5304L940 24.4697L935.53 20.0001L940 15.5304L938.939 14.4697L934.47 18.9394L930 14.4697L928.939 15.5304L933.409 20.0001Z" fill="#202125"/>
<path d="M0 48C0 43.5817 3.58172 40 8 40H944C948.418 40 952 43.5817 952 48V86H0V48Z" fill="white"/>
<path fill-rule="evenodd" clip-rule="evenodd" d="M22.5001 57.4697L17.5001 62.4697L16.9697 63.0001L17.5001 63.5304L22.5001 68.5304L23.5607 67.4697L19.841 63.7501H29.0304V62.2501H19.841L23.5607 58.5304L22.5001 57.4697Z" fill="#202125"/>
<path fill-rule="evenodd" clip-rule="evenodd" d="M59.4999 57.4697L64.4999 62.4697L65.0303 63.0001L64.4999 63.5304L59.4999 68.5304L58.4393 67.4697L62.159 63.7501H52.9696V62.2501H62.159L58.4393 58.5304L59.4999 57.4697Z" fill="#202125"/>
<path fill-rule="evenodd" clip-rule="evenodd" d="M98.3687 60.875C97.9808 60.2543 97.4358 59.7394 96.7819 59.3865C95.8561 58.8868 94.7776 58.7471 93.7547 58.9945C92.7317 59.242 91.8371 59.8589 91.2431 60.7259C90.6492 61.5929 90.398 62.6487 90.5377 63.6896C90.6775 64.7305 91.1984 65.6831 92.0002 66.3634C92.802 67.0437 93.828 67.4036 94.8801 67.3732C95.9323 67.3429 96.9357 66.9245 97.6968 66.199C98.4579 65.4736 98.9228 64.4927 99.0021 63.4455L100.498 63.5587C100.39 64.9763 99.7612 66.3036 98.7317 67.2849C97.7022 68.266 96.3455 68.8316 94.9234 68.8726C93.5013 68.9136 92.1142 68.4273 91.0297 67.5072C89.9452 66.587 89.2402 65.2981 89.0511 63.8892C88.8619 62.4802 89.202 61.0513 90.0057 59.8782C90.8092 58.7051 92.0192 57.871 93.402 57.5366C94.7848 57.2021 96.2426 57.3908 97.4944 58.0665C98.3022 58.5025 98.9873 59.1215 99.5 59.8656V57.125H101V61.625V62.375H100.25H95.75V60.875H98.3687Z" fill="#202125"/>
<rect x="121" y="46" width="748" height="34" rx="17" fill="#F8F9FB"/>
<rect x="126" y="51" width="24" height="24" rx="12" fill="white"/>
<path d="M138.107 58.9076C139.094 58.907 140.049 59.2557 140.804 59.892L142.916 57.8799C142.105 57.1321 141.131 56.5836 140.071 56.2779C139.011 55.9722 137.894 55.9179 136.81 56.1191C135.725 56.3203 134.702 56.7716 133.822 57.4371C132.942 58.1026 132.23 58.964 131.741 59.953L134.123 61.789C134.4 60.9513 134.935 60.2223 135.65 59.7051C136.365 59.188 137.225 58.909 138.107 58.9076Z" fill="#D94F3D"/>
<path d="M133.908 63.1075C133.908 62.6593 133.981 62.2142 134.123 61.7891L131.741 59.9531C131.254 60.9333 131 62.0129 131 63.1075C131 64.202 131.254 65.2817 131.741 66.2619L134.123 64.4259C133.981 64.0008 133.908 63.5557 133.908 63.1075Z" fill="#F2C042"/>
<path d="M144.924 61.8152H138.14V64.7227H141.984C141.755 65.5448 141.231 66.2537 140.513 66.7134L142.876 68.5355C144.386 67.1799 145.274 64.9757 144.924 61.8152Z" fill="#5085ED"/>
<path d="M140.512 66.7134C139.781 67.1314 138.948 67.3371 138.107 67.3072C137.225 67.3058 136.365 67.0268 135.65 66.5096C134.935 65.9925 134.4 65.2635 134.123 64.4258L131.741 66.2617C132.329 67.4477 133.237 68.446 134.361 69.1444C135.486 69.8427 136.783 70.2134 138.107 70.2147C139.849 70.262 141.547 69.6637 142.875 68.5348L140.512 66.7134Z" fill="#57A75C"/>
<path d="M159.484 68V57.99H163.166C163.763 57.99 164.286 58.102 164.734 58.326C165.182 58.5407 165.532 58.8487 165.784 59.25C166.036 59.642 166.162 60.104 166.162 60.636C166.162 61.0933 166.05 61.4993 165.826 61.854C165.611 62.2087 165.313 62.4933 164.93 62.708C165.443 62.9133 165.845 63.2307 166.134 63.66C166.433 64.0893 166.582 64.598 166.582 65.186C166.582 65.746 166.451 66.2407 166.19 66.67C165.929 67.09 165.56 67.4167 165.084 67.65C164.617 67.8833 164.071 68 163.446 68H159.484ZM163.152 58.97H160.604V62.358H163.152C163.74 62.358 164.197 62.2087 164.524 61.91C164.86 61.602 165.028 61.182 165.028 60.65C165.028 60.1367 164.86 59.7307 164.524 59.432C164.188 59.124 163.731 58.97 163.152 58.97ZM160.604 67.02H163.446C164.062 67.02 164.547 66.8567 164.902 66.53C165.257 66.194 165.434 65.7413 165.434 65.172C165.434 64.6027 165.257 64.1547 164.902 63.828C164.547 63.5013 164.062 63.338 163.446 63.338H160.604V67.02ZM168.455 68V61.112H171.745C172.417 61.112 172.958 61.2753 173.369 61.602C173.789 61.9193 173.999 62.3627 173.999 62.932C173.999 63.604 173.695 64.0847 173.089 64.374C173.471 64.5233 173.765 64.738 173.971 65.018C174.185 65.298 174.293 65.62 174.293 65.984C174.293 66.376 174.185 66.726 173.971 67.034C173.765 67.3327 173.481 67.5707 173.117 67.748C172.753 67.916 172.337 68 171.871 68H168.455ZM171.745 62.022H169.533V63.954H171.745C172.081 63.954 172.351 63.87 172.557 63.702C172.771 63.534 172.879 63.2913 172.879 62.974C172.879 62.3393 172.501 62.022 171.745 62.022ZM171.871 64.864H169.533V67.09H171.871C172.272 67.09 172.589 66.992 172.823 66.796C173.056 66.6 173.173 66.3293 173.173 65.984C173.173 65.6293 173.056 65.354 172.823 65.158C172.599 64.962 172.281 64.864 171.871 64.864ZM181.205 66.026L181.933 66.726C181.569 67.23 181.14 67.608 180.645 67.86C180.16 68.1027 179.623 68.224 179.035 68.224C178.345 68.224 177.733 68.0653 177.201 67.748C176.679 67.4307 176.268 66.9967 175.969 66.446C175.68 65.886 175.535 65.256 175.535 64.556C175.535 63.856 175.68 63.2307 175.969 62.68C176.268 62.12 176.669 61.6813 177.173 61.364C177.687 61.0467 178.261 60.888 178.895 60.888C179.521 60.888 180.071 61.042 180.547 61.35C181.033 61.658 181.411 62.0873 181.681 62.638C181.952 63.1793 182.087 63.8047 182.087 64.514V64.934H176.669C176.744 65.6247 176.996 66.1893 177.425 66.628C177.864 67.0667 178.424 67.286 179.105 67.286C179.535 67.286 179.922 67.1833 180.267 66.978C180.613 66.7727 180.925 66.4553 181.205 66.026ZM178.895 61.826C178.317 61.826 177.822 62.0313 177.411 62.442C177.01 62.8527 176.767 63.3893 176.683 64.052H180.967C180.902 63.3707 180.683 62.8293 180.309 62.428C179.945 62.0267 179.474 61.826 178.895 61.826ZM182.804 69.778V67.09H183.378C183.611 67.09 183.774 66.992 183.868 66.796C183.97 66.5907 184.05 66.2267 184.106 65.704L184.61 61.112H189.146V67.09H190.028V69.778H189.006V68H183.826V69.778H182.804ZM185.142 65.788C185.067 66.376 184.95 66.81 184.792 67.09H188.068V62.022H185.59L185.142 65.788ZM191.641 68V61.112H192.719V66.348L196.667 61.112H197.605V68H196.527V62.764L192.579 68H191.641ZM201.451 68V62.022H199.071V61.112H204.895V62.022H202.515V68H201.451ZM211.182 66.026L211.91 66.726C211.546 67.23 211.116 67.608 210.622 67.86C210.136 68.1027 209.6 68.224 209.012 68.224C208.321 68.224 207.71 68.0653 207.178 67.748C206.655 67.4307 206.244 66.9967 205.946 66.446C205.656 65.886 205.512 65.256 205.512 64.556C205.512 63.856 205.656 63.2307 205.946 62.68C206.244 62.12 206.646 61.6813 207.15 61.364C207.663 61.0467 208.237 60.888 208.872 60.888C209.497 60.888 210.048 61.042 210.524 61.35C211.009 61.658 211.387 62.0873 211.658 62.638C211.928 63.1793 212.064 63.8047 212.064 64.514V64.934H206.646C206.72 65.6247 206.972 66.1893 207.402 66.628C207.84 67.0667 208.4 67.286 209.082 67.286C209.511 67.286 209.898 67.1833 210.244 66.978C210.589 66.7727 210.902 66.4553 211.182 66.026ZM208.872 61.826C208.293 61.826 207.798 62.0313 207.388 62.442C206.986 62.8527 206.744 63.3893 206.66 64.052H210.944C210.878 63.3707 210.659 62.8293 210.286 62.428C209.922 62.0267 209.45 61.826 208.872 61.826ZM216.737 68V61.112H222.505V68H221.427V62.022H217.815V68H216.737ZM227.685 68.224C227.022 68.224 226.43 68.0653 225.907 67.748C225.384 67.4307 224.974 66.9967 224.675 66.446C224.386 65.8953 224.241 65.2653 224.241 64.556C224.241 63.8467 224.386 63.2167 224.675 62.666C224.974 62.1153 225.384 61.6813 225.907 61.364C226.43 61.0467 227.022 60.888 227.685 60.888C228.357 60.888 228.954 61.0467 229.477 61.364C230 61.6813 230.406 62.1153 230.695 62.666C230.994 63.2167 231.143 63.8467 231.143 64.556C231.143 65.2653 230.994 65.8953 230.695 66.446C230.406 66.9967 230 67.4307 229.477 67.748C228.954 68.0653 228.357 68.224 227.685 68.224ZM227.685 67.286C228.152 67.286 228.558 67.1693 228.903 66.936C229.248 66.7027 229.519 66.3807 229.715 65.97C229.911 65.5593 230.009 65.088 230.009 64.556C230.009 64.0147 229.911 63.5433 229.715 63.142C229.519 62.7313 229.248 62.4093 228.903 62.176C228.558 61.9427 228.152 61.826 227.685 61.826C227.228 61.826 226.826 61.9427 226.481 62.176C226.136 62.4093 225.865 62.7313 225.669 63.142C225.473 63.5433 225.375 64.0147 225.375 64.556C225.375 65.088 225.473 65.5593 225.669 65.97C225.865 66.3807 226.136 66.7027 226.481 66.936C226.826 67.1693 227.228 67.286 227.685 67.286ZM232.873 68V61.112H233.951V66.348L237.899 61.112H238.837V68H237.759V62.764L233.811 68H232.873ZM246.001 66.166L246.757 66.88C246.094 67.776 245.18 68.224 244.013 68.224C243.341 68.224 242.744 68.07 242.221 67.762C241.708 67.4447 241.302 67.0107 241.003 66.46C240.714 65.9093 240.569 65.2747 240.569 64.556C240.569 63.8373 240.718 63.2027 241.017 62.652C241.316 62.1013 241.726 61.672 242.249 61.364C242.772 61.0467 243.369 60.888 244.041 60.888C245.208 60.888 246.118 61.336 246.771 62.232L246.001 62.946C245.805 62.5913 245.534 62.316 245.189 62.12C244.844 61.924 244.452 61.826 244.013 61.826C243.332 61.826 242.776 62.0733 242.347 62.568C241.918 63.0627 241.703 63.7253 241.703 64.556C241.703 65.3773 241.918 66.04 242.347 66.544C242.786 67.0387 243.355 67.286 244.055 67.286C244.895 67.286 245.544 66.9127 246.001 66.166ZM248.313 68V61.112H249.391V64.108L252.443 61.112H253.871L250.427 64.472L254.193 68H252.681L249.391 64.864V68H248.313ZM257.894 68.224C257.231 68.224 256.638 68.0653 256.116 67.748C255.593 67.4307 255.182 66.9967 254.884 66.446C254.594 65.8953 254.45 65.2653 254.45 64.556C254.45 63.8467 254.594 63.2167 254.884 62.666C255.182 62.1153 255.593 61.6813 256.116 61.364C256.638 61.0467 257.231 60.888 257.894 60.888C258.566 60.888 259.163 61.0467 259.686 61.364C260.208 61.6813 260.614 62.1153 260.904 62.666C261.202 63.2167 261.352 63.8467 261.352 64.556C261.352 65.2653 261.202 65.8953 260.904 66.446C260.614 66.9967 260.208 67.4307 259.686 67.748C259.163 68.0653 258.566 68.224 257.894 68.224ZM257.894 67.286C258.36 67.286 258.766 67.1693 259.112 66.936C259.457 66.7027 259.728 66.3807 259.924 65.97C260.12 65.5593 260.218 65.088 260.218 64.556C260.218 64.0147 260.12 63.5433 259.924 63.142C259.728 62.7313 259.457 62.4093 259.112 62.176C258.766 61.9427 258.36 61.826 257.894 61.826C257.436 61.826 257.035 61.9427 256.69 62.176C256.344 62.4093 256.074 62.7313 255.878 63.142C255.682 63.5433 255.584 64.0147 255.584 64.556C255.584 65.088 255.682 65.5593 255.878 65.97C256.074 66.3807 256.344 66.7027 256.69 66.936C257.035 67.1693 257.436 67.286 257.894 67.286ZM263.082 68V61.112H266.372C267.044 61.112 267.585 61.2753 267.996 61.602C268.416 61.9193 268.626 62.3627 268.626 62.932C268.626 63.604 268.323 64.0847 267.716 64.374C268.099 64.5233 268.393 64.738 268.598 65.018C268.813 65.298 268.92 65.62 268.92 65.984C268.92 66.376 268.813 66.726 268.598 67.034C268.393 67.3327 268.108 67.5707 267.744 67.748C267.38 67.916 266.965 68 266.498 68H263.082ZM266.372 62.022H264.16V63.954H266.372C266.708 63.954 266.979 63.87 267.184 63.702C267.399 63.534 267.506 63.2913 267.506 62.974C267.506 62.3393 267.128 62.022 266.372 62.022ZM266.498 64.864H264.16V67.09H266.498C266.899 67.09 267.217 66.992 267.45 66.796C267.683 66.6 267.8 66.3293 267.8 65.984C267.8 65.6293 267.683 65.354 267.45 65.158C267.226 64.962 266.909 64.864 266.498 64.864ZM270.597 68V61.112H271.675V63.674H273.509C274.227 63.674 274.811 63.8747 275.259 64.276C275.707 64.668 275.931 65.186 275.931 65.83C275.931 66.2313 275.823 66.6 275.609 66.936C275.394 67.2627 275.105 67.524 274.741 67.72C274.377 67.9067 273.966 68 273.509 68H270.597ZM276.855 68V61.112H277.933V68H276.855ZM273.509 64.584H271.675V67.09H273.509C273.919 67.09 274.241 66.978 274.475 66.754C274.708 66.53 274.825 66.222 274.825 65.83C274.825 65.4473 274.708 65.144 274.475 64.92C274.241 64.696 273.919 64.584 273.509 64.584ZM280.107 68V61.112H281.185V66.348L285.133 61.112H286.071V68H284.993V62.764L281.045 68H280.107ZM283.201 59.838C282.576 59.838 282.049 59.6793 281.619 59.362C281.199 59.0353 280.961 58.5827 280.905 58.004H281.871C281.927 58.396 282.072 58.6853 282.305 58.872C282.548 59.0587 282.847 59.152 283.201 59.152C283.556 59.152 283.85 59.0587 284.083 58.872C284.317 58.6853 284.461 58.396 284.517 58.004H285.483C285.427 58.5827 285.189 59.0353 284.769 59.362C284.349 59.6793 283.827 59.838 283.201 59.838ZM293.552 68.224C292.217 68.224 291.19 67.776 290.472 66.88L291.2 66.18C291.713 66.9173 292.45 67.286 293.412 67.286C293.962 67.286 294.401 67.1693 294.728 66.936C295.054 66.7027 295.218 66.3853 295.218 65.984C295.218 65.256 294.681 64.892 293.608 64.892H292.194V63.982H293.636C294.074 63.982 294.415 63.8933 294.658 63.716C294.91 63.5387 295.036 63.2867 295.036 62.96C295.036 62.6053 294.886 62.33 294.588 62.134C294.289 61.9287 293.892 61.826 293.398 61.826C292.52 61.826 291.82 62.1853 291.298 62.904L290.598 62.218C291.335 61.3313 292.278 60.888 293.426 60.888C294.238 60.888 294.896 61.07 295.4 61.434C295.904 61.798 296.156 62.2693 296.156 62.848C296.156 63.5667 295.806 64.0753 295.106 64.374C295.927 64.7007 296.338 65.2653 296.338 66.068C296.338 66.4787 296.216 66.8473 295.974 67.174C295.731 67.5007 295.4 67.7573 294.98 67.944C294.569 68.1307 294.093 68.224 293.552 68.224ZM300.111 68.224C299.626 68.224 299.197 68.1307 298.823 67.944C298.45 67.7573 298.156 67.5007 297.941 67.174C297.736 66.838 297.633 66.46 297.633 66.04C297.633 65.34 297.899 64.7847 298.431 64.374C298.973 63.9633 299.696 63.758 300.601 63.758H302.533V63.702C302.533 63.1233 302.356 62.666 302.001 62.33C301.656 61.9847 301.18 61.812 300.573 61.812C299.78 61.812 299.108 62.1433 298.557 62.806L297.857 62.12C298.641 61.2987 299.57 60.888 300.643 60.888C301.231 60.888 301.745 61.0047 302.183 61.238C302.622 61.462 302.963 61.784 303.205 62.204C303.448 62.6147 303.569 63.1 303.569 63.66V68H302.547V67.062C302.286 67.4167 301.945 67.7013 301.525 67.916C301.105 68.1213 300.634 68.224 300.111 68.224ZM300.265 67.328C300.807 67.328 301.278 67.1927 301.679 66.922C302.081 66.642 302.365 66.2733 302.533 65.816V64.626H300.727C300.102 64.626 299.617 64.7473 299.271 64.99C298.926 65.2233 298.753 65.5593 298.753 65.998C298.753 66.3993 298.889 66.7213 299.159 66.964C299.439 67.2067 299.808 67.328 300.265 67.328ZM305.613 68V61.112H311.381V68H310.303V62.022H306.691V68H305.613ZM314.629 70.716H313.551V61.112H314.615V62.4C314.849 61.9427 315.189 61.5787 315.637 61.308C316.095 61.028 316.599 60.888 317.149 60.888C317.784 60.888 318.344 61.0467 318.829 61.364C319.315 61.6813 319.697 62.12 319.977 62.68C320.257 63.2307 320.397 63.856 320.397 64.556C320.397 65.2653 320.253 65.8953 319.963 66.446C319.674 66.9967 319.277 67.4307 318.773 67.748C318.279 68.0653 317.709 68.224 317.065 68.224C316.515 68.224 316.029 68.112 315.609 67.888C315.189 67.6547 314.863 67.342 314.629 66.95V70.716ZM314.629 64.752V65.634C314.797 66.1287 315.087 66.53 315.497 66.838C315.908 67.1367 316.379 67.286 316.911 67.286C317.378 67.286 317.784 67.1693 318.129 66.936C318.484 66.7027 318.759 66.3807 318.955 65.97C319.161 65.5593 319.263 65.088 319.263 64.556C319.263 64.024 319.165 63.5527 318.969 63.142C318.783 62.7313 318.517 62.4093 318.171 62.176C317.835 61.9427 317.443 61.826 316.995 61.826C316.538 61.826 316.132 61.952 315.777 62.204C315.423 62.4467 315.143 62.7873 314.937 63.226C314.732 63.6647 314.629 64.1733 314.629 64.752ZM325.143 68.224C324.48 68.224 323.887 68.0653 323.365 67.748C322.842 67.4307 322.431 66.9967 322.133 66.446C321.843 65.8953 321.699 65.2653 321.699 64.556C321.699 63.8467 321.843 63.2167 322.133 62.666C322.431 62.1153 322.842 61.6813 323.365 61.364C323.887 61.0467 324.48 60.888 325.143 60.888C325.815 60.888 326.412 61.0467 326.935 61.364C327.457 61.6813 327.863 62.1153 328.153 62.666C328.451 63.2167 328.601 63.8467 328.601 64.556C328.601 65.2653 328.451 65.8953 328.153 66.446C327.863 66.9967 327.457 67.4307 326.935 67.748C326.412 68.0653 325.815 68.224 325.143 68.224ZM325.143 67.286C325.609 67.286 326.015 67.1693 326.361 66.936C326.706 66.7027 326.977 66.3807 327.173 65.97C327.369 65.5593 327.467 65.088 327.467 64.556C327.467 64.0147 327.369 63.5433 327.173 63.142C326.977 62.7313 326.706 62.4093 326.361 62.176C326.015 61.9427 325.609 61.826 325.143 61.826C324.685 61.826 324.284 61.9427 323.939 62.176C323.593 62.4093 323.323 62.7313 323.127 63.142C322.931 63.5433 322.833 64.0147 322.833 64.556C322.833 65.088 322.931 65.5593 323.127 65.97C323.323 66.3807 323.593 66.7027 323.939 66.936C324.284 67.1693 324.685 67.286 325.143 67.286ZM335.329 66.166L336.085 66.88C335.422 67.776 334.507 68.224 333.341 68.224C332.669 68.224 332.071 68.07 331.549 67.762C331.035 67.4447 330.629 67.0107 330.331 66.46C330.041 65.9093 329.897 65.2747 329.897 64.556C329.897 63.8373 330.046 63.2027 330.345 62.652C330.643 62.1013 331.054 61.672 331.577 61.364C332.099 61.0467 332.697 60.888 333.369 60.888C334.535 60.888 335.445 61.336 336.099 62.232L335.329 62.946C335.133 62.5913 334.862 62.316 334.517 62.12C334.171 61.924 333.779 61.826 333.341 61.826C332.659 61.826 332.104 62.0733 331.675 62.568C331.245 63.0627 331.031 63.7253 331.031 64.556C331.031 65.3773 331.245 66.04 331.675 66.544C332.113 67.0387 332.683 67.286 333.383 67.286C334.223 67.286 334.871 66.9127 335.329 66.166ZM340.575 68V61.112H341.653V66.348L345.601 61.112H346.539V68H345.461V62.764L341.513 68H340.575ZM348.075 68V67.076H348.649C348.863 67.076 349.027 67.0107 349.139 66.88C349.251 66.74 349.321 66.4973 349.349 66.152L349.755 61.112H354.417V68H353.339V62.022H350.749L350.371 66.306C350.315 66.9313 350.161 67.37 349.909 67.622C349.666 67.874 349.288 68 348.775 68H348.075ZM356.588 68V61.112H357.666V66.348L361.614 61.112H362.552V68H361.474V62.764L357.526 68H356.588ZM375.339 57.99V64.052C375.339 65.368 375.003 66.3947 374.331 67.132C373.659 67.86 372.73 68.224 371.545 68.224C370.359 68.224 369.431 67.86 368.759 67.132C368.087 66.3947 367.751 65.368 367.751 64.052V57.99H368.871V64.052C368.871 65.0693 369.104 65.8487 369.571 66.39C370.037 66.9313 370.695 67.202 371.545 67.202C372.394 67.202 373.052 66.9313 373.519 66.39C373.995 65.8487 374.233 65.0693 374.233 64.052V57.99H375.339ZM379.015 68H377.895V57.99H381.563C382.188 57.99 382.734 58.1067 383.201 58.34C383.668 58.5733 384.032 58.9 384.293 59.32C384.554 59.74 384.685 60.2347 384.685 60.804C384.685 61.56 384.447 62.19 383.971 62.694C383.504 63.1887 382.884 63.4873 382.109 63.59L385.609 68H384.181L380.821 63.618H379.015V68ZM381.563 58.97H379.015V62.638H381.563C382.179 62.638 382.66 62.4747 383.005 62.148C383.36 61.8213 383.537 61.3733 383.537 60.804C383.537 60.2253 383.36 59.7773 383.005 59.46C382.66 59.1333 382.179 58.97 381.563 58.97ZM393.425 68H387.419V57.99H388.539V67.006H393.425V68Z" fill="#202125"/>
<path d="M845 56.2109L846.463 60.2691L846.636 60.7481L847.145 60.7643L851.457 60.9021L848.049 63.5479L847.647 63.8602L847.789 64.3491L848.991 68.4925L845.421 66.0695L845 65.7835L844.579 66.0695L841.009 68.4925L842.211 64.3491L842.353 63.8602L841.951 63.5479L838.543 60.9021L842.855 60.7643L843.364 60.7481L843.537 60.2691L845 56.2109Z" stroke="#202125" stroke-width="1.5"/>
<g clip-path="url(#clip4_4093_19171)">
<path d="M894 53C888.478 53 884 57.4775 884 63C884 68.5225 888.478 73 894 73C899.522 73 904 68.5225 904 63C904 57.4775 899.522 53 894 53ZM894 58C895.611 58 896.917 59.3058 896.917 60.9167C896.917 62.5275 895.611 63.8333 894 63.8333C892.389 63.8333 891.083 62.5275 891.083 60.9167C891.083 59.3058 892.389 58 894 58ZM894 71.3333C891.912 71.3333 890.006 70.5558 888.542 69.2817C889.372 67.0733 891.501 65.5 894 65.5C896.499 65.5 898.627 67.0733 899.458 69.2817C897.994 70.555 896.088 71.3333 894 71.3333Z" fill="#5F6368"/>
</g>
<g clip-path="url(#clip5_4093_19171)">
<path fill-rule="evenodd" clip-rule="evenodd" d="M931.5 58C931.5 58.8284 930.828 59.5 930 59.5C929.172 59.5 928.5 58.8284 928.5 58C928.5 57.1716 929.172 56.5 930 56.5C930.828 56.5 931.5 57.1716 931.5 58ZM931.5 63C931.5 63.8284 930.828 64.5 930 64.5C929.172 64.5 928.5 63.8284 928.5 63C928.5 62.1716 929.172 61.5 930 61.5C930.828 61.5 931.5 62.1716 931.5 63ZM930 69.5C930.828 69.5 931.5 68.8284 931.5 68C931.5 67.1716 930.828 66.5 930 66.5C929.172 66.5 928.5 67.1716 928.5 68C928.5 68.8284 929.172 69.5 930 69.5Z" fill="#202125"/>
</g>
</g>
<path d="M0 0H952H0ZM952 87H0V85H952V87ZM0 86V0V86ZM952 0V86V0Z" fill="black" fill-opacity="0.12" mask="url(#path-1-inside-1_4093_19171)"/>
<defs>
<clipPath id="clip0_4093_19171">
<path d="M0 10C0 4.47715 4.47715 0 10 0H942C947.523 0 952 4.47715 952 10V86H0V10Z" fill="white"/>
</clipPath>
<clipPath id="clip1_4093_19171">
<rect width="16" height="16" fill="white" transform="translate(49 12)"/>
</clipPath>
<clipPath id="clip2_4093_19171">
<rect x="275.97" y="6" width="232" height="28" rx="9" fill="white"/>
</clipPath>
<clipPath id="clip3_4093_19171">
<rect width="16" height="16" fill="white" transform="translate(284.97 12)"/>
</clipPath>
<clipPath id="clip4_4093_19171">
<rect width="20" height="20" fill="white" transform="translate(884 53)"/>
</clipPath>
<clipPath id="clip5_4093_19171">
<rect x="913" y="46" width="34" height="34" rx="17" fill="white"/>
</clipPath>
</defs>
</svg>
