<svg width="952" height="510" viewBox="0 0 952 510" fill="none" xmlns="http://www.w3.org/2000/svg">
<path fill-rule="evenodd" clip-rule="evenodd" d="M580.323 201.625L599.772 193.463C598.691 190.711 595.497 188.813 591.692 188.813C586.829 188.789 580.088 193.131 580.323 201.625ZM603.154 209.526L610.577 214.508C608.181 218.091 602.426 224.26 592.443 224.26C580.088 224.26 571.162 214.603 571.162 202.29C571.162 189.217 580.158 180.319 591.386 180.319C602.685 180.319 608.205 189.383 610.013 194.294L611 196.785L581.92 208.933C584.151 213.346 587.604 215.6 592.467 215.6C597.306 215.6 600.688 213.18 603.154 209.526ZM556.011 222.931H565.571V158.349H556.011V222.931ZM540.414 202.361C540.414 194.626 535.293 188.955 528.786 188.955C522.209 188.955 516.666 194.626 516.666 202.361C516.666 210.024 522.186 215.6 528.786 215.6C535.316 215.6 540.414 210.024 540.414 202.361ZM548.823 181.648V221.104C548.823 237.333 539.357 244 528.152 244C517.605 244 511.263 236.835 508.867 231.022L517.182 227.534C518.662 231.117 522.303 235.364 528.152 235.364C535.316 235.364 539.779 230.879 539.779 222.457V219.301H539.427C537.29 221.958 533.155 224.307 527.964 224.307C517.088 224.307 507.105 214.746 507.105 202.408C507.105 189.999 517.065 180.343 527.964 180.343C533.155 180.343 537.29 182.668 539.427 185.254H539.756V181.672C539.756 181.648 548.823 181.648 548.823 181.648ZM444.505 202.29C444.505 194.389 438.915 188.979 432.455 188.979C425.972 188.979 420.405 194.389 420.405 202.29C420.405 210.119 425.996 215.6 432.455 215.6C438.915 215.6 444.505 210.095 444.505 202.29ZM453.901 202.29C453.901 214.936 444.271 224.26 432.455 224.26C420.64 224.26 411.009 214.936 411.009 202.29C411.009 189.549 420.64 180.319 432.455 180.319C444.271 180.319 453.901 189.549 453.901 202.29ZM492.565 202.29C492.565 194.389 486.975 188.979 480.515 188.979C474.032 188.979 468.465 194.389 468.465 202.29C468.465 210.119 474.055 215.6 480.515 215.6C486.975 215.6 492.565 210.095 492.565 202.29ZM501.961 202.29C501.961 214.936 492.33 224.26 480.515 224.26C468.7 224.26 459.069 214.936 459.069 202.29C459.069 189.549 468.7 180.319 480.515 180.319C492.33 180.319 501.961 189.549 501.961 202.29ZM374.271 224.26C355.668 224.26 340 208.933 340 190.142C340 171.327 355.668 156 374.271 156C384.583 156 391.912 160.081 397.432 165.419L390.926 171.991C386.979 168.243 381.624 165.324 374.271 165.324C360.671 165.324 350.03 176.404 350.03 190.118C350.03 203.855 360.671 214.912 374.271 214.912C383.08 214.912 388.107 211.329 391.325 208.079C393.956 205.421 395.694 201.578 396.352 196.334H374.271V187.01H405.325C405.654 188.671 405.818 190.664 405.818 192.823C405.818 199.822 403.915 208.482 397.832 214.627C391.912 220.915 384.325 224.26 374.271 224.26Z" fill="white"/>
<g filter="url(#filter0_dd_4101_19371)">
<rect x="194" y="288" width="564" height="48" rx="24" fill="white"/>
<rect x="194.5" y="288.5" width="563" height="47" rx="23.5" stroke="#EFF1F2"/>
<g clip-path="url(#clip0_4101_19371)">
<path d="M216.328 312.703C217.203 313.578 218.266 314.016 219.516 314.016C220.766 314.016 221.828 313.578 222.703 312.703C223.578 311.828 224.016 310.766 224.016 309.516C224.016 308.266 223.578 307.203 222.703 306.328C221.828 305.453 220.766 305.016 219.516 305.016C218.266 305.016 217.203 305.453 216.328 306.328C215.453 307.203 215.016 308.266 215.016 309.516C215.016 310.766 215.453 311.828 216.328 312.703ZM225.516 314.016L230.484 318.984L228.984 320.484L224.016 315.516V314.719L223.734 314.438C222.547 315.469 221.141 315.984 219.516 315.984C217.703 315.984 216.156 315.359 214.875 314.109C213.625 312.859 213 311.328 213 309.516C213 307.703 213.625 306.172 214.875 304.922C216.156 303.641 217.703 303 219.516 303C221.328 303 222.859 303.641 224.109 304.922C225.359 306.172 225.984 307.703 225.984 309.516C225.984 311.141 225.469 312.547 224.438 313.734L224.719 314.016H225.516Z" fill="#5F6368"/>
<path d="M243.584 318V306.56H247.968C248.661 306.56 249.269 306.688 249.792 306.944C250.315 307.189 250.72 307.536 251.008 307.984C251.296 308.432 251.44 308.96 251.44 309.568C251.44 310.091 251.312 310.56 251.056 310.976C250.8 311.381 250.448 311.707 250 311.952C250.597 312.187 251.061 312.549 251.392 313.04C251.733 313.52 251.904 314.091 251.904 314.752C251.904 315.403 251.749 315.973 251.44 316.464C251.131 316.944 250.699 317.323 250.144 317.6C249.589 317.867 248.939 318 248.192 318H243.584ZM247.904 307.968H245.232V311.424H247.904C248.491 311.424 248.949 311.269 249.28 310.96C249.611 310.651 249.776 310.224 249.776 309.68C249.776 309.157 249.611 308.741 249.28 308.432C248.949 308.123 248.491 307.968 247.904 307.968ZM245.232 316.592H248.208C248.837 316.592 249.333 316.421 249.696 316.08C250.059 315.739 250.24 315.275 250.24 314.688C250.24 314.112 250.059 313.659 249.696 313.328C249.333 312.987 248.837 312.816 248.208 312.816H245.232V316.592ZM254.123 318V310.048H257.947C258.747 310.048 259.398 310.235 259.899 310.608C260.401 310.981 260.651 311.499 260.651 312.16C260.651 312.939 260.294 313.493 259.579 313.824C260.027 313.995 260.374 314.245 260.619 314.576C260.865 314.896 260.987 315.269 260.987 315.696C260.987 316.144 260.865 316.544 260.619 316.896C260.374 317.237 260.038 317.509 259.611 317.712C259.185 317.904 258.694 318 258.139 318H254.123ZM257.819 311.296H255.643V313.296H257.819C258.193 313.296 258.486 313.211 258.699 313.04C258.923 312.869 259.035 312.619 259.035 312.288C259.035 311.627 258.63 311.296 257.819 311.296ZM258.011 314.464H255.643V316.752H258.011C258.449 316.752 258.785 316.656 259.019 316.464C259.265 316.261 259.387 315.979 259.387 315.616C259.387 315.253 259.265 314.971 259.019 314.768C258.785 314.565 258.449 314.464 258.011 314.464ZM269.048 315.664L269.992 316.672C269.576 317.195 269.08 317.589 268.504 317.856C267.939 318.123 267.32 318.256 266.648 318.256C265.816 318.256 265.085 318.075 264.456 317.712C263.837 317.349 263.352 316.848 263 316.208C262.648 315.568 262.472 314.843 262.472 314.032C262.472 313.221 262.643 312.496 262.984 311.856C263.325 311.216 263.795 310.715 264.392 310.352C264.989 309.979 265.661 309.792 266.408 309.792C267.133 309.792 267.773 309.973 268.328 310.336C268.883 310.688 269.315 311.179 269.624 311.808C269.944 312.437 270.104 313.157 270.104 313.968V314.544H264.152C264.248 315.269 264.52 315.851 264.968 316.288C265.416 316.715 266.003 316.928 266.728 316.928C267.688 316.928 268.461 316.507 269.048 315.664ZM266.392 311.12C265.795 311.12 265.293 311.328 264.888 311.744C264.493 312.149 264.253 312.699 264.168 313.392H268.488C268.424 312.688 268.205 312.133 267.832 311.728C267.469 311.323 266.989 311.12 266.392 311.12ZM271.115 320.112V316.672H271.771C272.048 316.672 272.245 316.565 272.363 316.352C272.48 316.139 272.571 315.723 272.635 315.104L273.163 310.048H278.667V316.672H279.755V320.112H278.251V318H272.635V320.112H271.115ZM274.155 315.216C274.091 315.856 273.957 316.341 273.755 316.672H277.083V311.36H274.603L274.155 315.216ZM281.639 318V310.048H283.191V315.648L287.287 310.048H288.695V318H287.127V312.432L283.047 318H281.639ZM293.089 318V311.376H290.449V310.048H297.313V311.376H294.673V318H293.089ZM304.735 315.664L305.679 316.672C305.263 317.195 304.767 317.589 304.191 317.856C303.626 318.123 303.007 318.256 302.335 318.256C301.503 318.256 300.773 318.075 300.143 317.712C299.525 317.349 299.039 316.848 298.687 316.208C298.335 315.568 298.159 314.843 298.159 314.032C298.159 313.221 298.33 312.496 298.671 311.856C299.013 311.216 299.482 310.715 300.079 310.352C300.677 309.979 301.349 309.792 302.095 309.792C302.821 309.792 303.461 309.973 304.015 310.336C304.57 310.688 305.002 311.179 305.311 311.808C305.631 312.437 305.791 313.157 305.791 313.968V314.544H299.839C299.935 315.269 300.207 315.851 300.655 316.288C301.103 316.715 301.69 316.928 302.415 316.928C303.375 316.928 304.149 316.507 304.735 315.664ZM302.079 311.12C301.482 311.12 300.981 311.328 300.575 311.744C300.181 312.149 299.941 312.699 299.855 313.392H304.175C304.111 312.688 303.893 312.133 303.519 311.728C303.157 311.323 302.677 311.12 302.079 311.12ZM311.467 318V310.048H318.347V318H316.747V311.376H313.067V318H311.467ZM324.473 318.256C323.684 318.256 322.98 318.075 322.361 317.712C321.753 317.349 321.273 316.848 320.921 316.208C320.58 315.568 320.409 314.843 320.409 314.032C320.409 313.211 320.58 312.48 320.921 311.84C321.273 311.2 321.753 310.699 322.361 310.336C322.969 309.973 323.668 309.792 324.457 309.792C325.257 309.792 325.961 309.973 326.569 310.336C327.188 310.699 327.668 311.2 328.009 311.84C328.361 312.48 328.537 313.211 328.537 314.032C328.537 314.843 328.361 315.568 328.009 316.208C327.668 316.848 327.193 317.349 326.585 317.712C325.977 318.075 325.273 318.256 324.473 318.256ZM324.473 316.88C325.188 316.88 325.764 316.619 326.201 316.096C326.639 315.563 326.857 314.875 326.857 314.032C326.857 313.179 326.639 312.491 326.201 311.968C325.764 311.435 325.183 311.168 324.457 311.168C323.753 311.168 323.183 311.435 322.745 311.968C322.308 312.491 322.089 313.179 322.089 314.032C322.089 314.875 322.308 315.563 322.745 316.096C323.183 316.619 323.759 316.88 324.473 316.88ZM330.608 318V310.048H332.16V315.648L336.256 310.048H337.664V318H336.096V312.432L332.016 318H330.608ZM345.978 315.68L347.018 316.704C346.634 317.195 346.165 317.579 345.61 317.856C345.055 318.123 344.447 318.256 343.786 318.256C342.997 318.256 342.293 318.075 341.674 317.712C341.066 317.349 340.586 316.853 340.234 316.224C339.893 315.584 339.722 314.853 339.722 314.032C339.722 313.2 339.893 312.469 340.234 311.84C340.586 311.2 341.071 310.699 341.69 310.336C342.309 309.973 343.013 309.792 343.802 309.792C345.167 309.792 346.245 310.309 347.034 311.344L345.962 312.368C345.482 311.568 344.773 311.168 343.834 311.168C343.119 311.168 342.533 311.429 342.074 311.952C341.626 312.464 341.402 313.157 341.402 314.032C341.402 314.885 341.631 315.579 342.09 316.112C342.549 316.635 343.141 316.896 343.866 316.896C344.314 316.896 344.714 316.795 345.066 316.592C345.418 316.379 345.722 316.075 345.978 315.68ZM348.78 318V310.048H350.38V313.472L353.58 310.048H355.564L351.916 313.92L355.916 318H353.82L350.38 314.416V318H348.78ZM360.411 318.256C359.622 318.256 358.918 318.075 358.299 317.712C357.691 317.349 357.211 316.848 356.859 316.208C356.518 315.568 356.347 314.843 356.347 314.032C356.347 313.211 356.518 312.48 356.859 311.84C357.211 311.2 357.691 310.699 358.299 310.336C358.907 309.973 359.606 309.792 360.395 309.792C361.195 309.792 361.899 309.973 362.507 310.336C363.126 310.699 363.606 311.2 363.947 311.84C364.299 312.48 364.475 313.211 364.475 314.032C364.475 314.843 364.299 315.568 363.947 316.208C363.606 316.848 363.131 317.349 362.523 317.712C361.915 318.075 361.211 318.256 360.411 318.256ZM360.411 316.88C361.126 316.88 361.702 316.619 362.139 316.096C362.576 315.563 362.795 314.875 362.795 314.032C362.795 313.179 362.576 312.491 362.139 311.968C361.702 311.435 361.12 311.168 360.395 311.168C359.691 311.168 359.12 311.435 358.683 311.968C358.246 312.491 358.027 313.179 358.027 314.032C358.027 314.875 358.246 315.563 358.683 316.096C359.12 316.619 359.696 316.88 360.411 316.88ZM366.545 318V310.048H370.369C371.169 310.048 371.82 310.235 372.321 310.608C372.823 310.981 373.073 311.499 373.073 312.16C373.073 312.939 372.716 313.493 372.001 313.824C372.449 313.995 372.796 314.245 373.041 314.576C373.287 314.896 373.409 315.269 373.409 315.696C373.409 316.144 373.287 316.544 373.041 316.896C372.796 317.237 372.46 317.509 372.033 317.712C371.607 317.904 371.116 318 370.561 318H366.545ZM370.241 311.296H368.065V313.296H370.241C370.615 313.296 370.908 313.211 371.121 313.04C371.345 312.869 371.457 312.619 371.457 312.288C371.457 311.627 371.052 311.296 370.241 311.296ZM370.433 314.464H368.065V316.752H370.433C370.871 316.752 371.207 316.656 371.441 316.464C371.687 316.261 371.809 315.979 371.809 315.616C371.809 315.253 371.687 314.971 371.441 314.768C371.207 314.565 370.871 314.464 370.433 314.464ZM375.389 318V310.048H376.989V312.8H378.829C379.704 312.8 380.402 313.04 380.925 313.52C381.458 313.989 381.725 314.608 381.725 315.376C381.725 315.877 381.602 316.331 381.357 316.736C381.112 317.131 380.77 317.44 380.333 317.664C379.896 317.888 379.394 318 378.829 318H375.389ZM382.685 318V310.048H384.285V318H382.685ZM378.765 314.112H376.989V316.704H378.765C379.192 316.704 379.522 316.592 379.757 316.368C379.992 316.133 380.109 315.808 380.109 315.392C380.109 314.987 379.992 314.672 379.757 314.448C379.522 314.224 379.192 314.112 378.765 314.112ZM386.827 318V310.048H388.379V315.648L392.475 310.048H393.883V318H392.315V312.432L388.235 318H386.827ZM390.475 308.64C389.728 308.64 389.109 308.453 388.619 308.08C388.128 307.696 387.84 307.147 387.755 306.432H389.099C389.152 306.869 389.301 307.189 389.547 307.392C389.803 307.584 390.112 307.68 390.475 307.68C390.848 307.68 391.152 307.584 391.387 307.392C391.632 307.189 391.781 306.869 391.835 306.432H393.195C393.109 307.147 392.816 307.696 392.315 308.08C391.824 308.453 391.211 308.64 390.475 308.64ZM402.766 318.256C401.252 318.256 400.068 317.749 399.214 316.736L400.174 315.728C400.772 316.528 401.588 316.928 402.622 316.928C403.198 316.928 403.652 316.816 403.982 316.592C404.313 316.357 404.478 316.037 404.478 315.632C404.478 314.896 403.934 314.528 402.846 314.528H401.262V313.312H402.862C403.321 313.312 403.673 313.221 403.918 313.04C404.164 312.859 404.286 312.603 404.286 312.272C404.286 311.909 404.132 311.627 403.822 311.424C403.524 311.221 403.124 311.12 402.622 311.12C401.673 311.12 400.91 311.504 400.334 312.272L399.39 311.28C400.254 310.288 401.353 309.792 402.686 309.792C403.316 309.792 403.87 309.888 404.35 310.08C404.83 310.272 405.204 310.544 405.47 310.896C405.748 311.237 405.886 311.632 405.886 312.08C405.886 312.88 405.497 313.451 404.718 313.792C405.636 314.187 406.094 314.827 406.094 315.712C406.094 316.203 405.95 316.64 405.662 317.024C405.374 317.408 404.98 317.712 404.478 317.936C403.977 318.149 403.406 318.256 402.766 318.256ZM410.552 318.256C409.986 318.256 409.485 318.149 409.048 317.936C408.61 317.712 408.269 317.408 408.024 317.024C407.789 316.64 407.672 316.203 407.672 315.712C407.672 314.891 407.986 314.251 408.616 313.792C409.245 313.323 410.104 313.088 411.192 313.088H413.192C413.192 312.48 413.005 311.995 412.632 311.632C412.269 311.269 411.757 311.088 411.096 311.088C410.264 311.088 409.517 311.44 408.856 312.144L407.928 311.152C408.866 310.245 409.965 309.792 411.224 309.792C411.928 309.792 412.536 309.931 413.048 310.208C413.57 310.475 413.976 310.853 414.264 311.344C414.552 311.824 414.696 312.389 414.696 313.04V318H413.24V316.96C412.952 317.365 412.573 317.685 412.104 317.92C411.645 318.144 411.128 318.256 410.552 318.256ZM410.872 317.008C411.416 317.008 411.89 316.869 412.296 316.592C412.712 316.304 413.01 315.925 413.192 315.456V314.224H411.336C410.696 314.224 410.194 314.352 409.832 314.608C409.48 314.853 409.304 315.2 409.304 315.648C409.304 316.053 409.442 316.384 409.72 316.64C410.008 316.885 410.392 317.008 410.872 317.008ZM417.092 318V310.048H423.972V318H422.372V311.376H418.692V318H417.092ZM428.098 321.104H426.498V310.048H428.082V311.408C428.338 310.917 428.706 310.528 429.186 310.24C429.677 309.941 430.226 309.792 430.834 309.792C431.549 309.792 432.184 309.973 432.738 310.336C433.304 310.699 433.746 311.2 434.066 311.84C434.397 312.48 434.562 313.211 434.562 314.032C434.562 314.853 434.392 315.584 434.05 316.224C433.72 316.864 433.266 317.365 432.69 317.728C432.125 318.08 431.485 318.256 430.77 318.256C430.173 318.256 429.645 318.133 429.186 317.888C428.728 317.643 428.365 317.312 428.098 316.896V321.104ZM428.098 314.176V315.2C428.269 315.701 428.562 316.112 428.978 316.432C429.405 316.741 429.89 316.896 430.434 316.896C430.925 316.896 431.352 316.773 431.714 316.528C432.077 316.283 432.36 315.947 432.562 315.52C432.776 315.083 432.882 314.587 432.882 314.032C432.882 313.189 432.669 312.501 432.242 311.968C431.816 311.424 431.245 311.152 430.53 311.152C430.061 311.152 429.64 311.28 429.266 311.536C428.904 311.792 428.616 312.149 428.402 312.608C428.2 313.056 428.098 313.579 428.098 314.176ZM440.223 318.256C439.434 318.256 438.73 318.075 438.111 317.712C437.503 317.349 437.023 316.848 436.671 316.208C436.33 315.568 436.159 314.843 436.159 314.032C436.159 313.211 436.33 312.48 436.671 311.84C437.023 311.2 437.503 310.699 438.111 310.336C438.719 309.973 439.418 309.792 440.207 309.792C441.007 309.792 441.711 309.973 442.319 310.336C442.938 310.699 443.418 311.2 443.759 311.84C444.111 312.48 444.287 313.211 444.287 314.032C444.287 314.843 444.111 315.568 443.759 316.208C443.418 316.848 442.943 317.349 442.335 317.712C441.727 318.075 441.023 318.256 440.223 318.256ZM440.223 316.88C440.938 316.88 441.514 316.619 441.951 316.096C442.389 315.563 442.607 314.875 442.607 314.032C442.607 313.179 442.389 312.491 441.951 311.968C441.514 311.435 440.933 311.168 440.207 311.168C439.503 311.168 438.933 311.435 438.495 311.968C438.058 312.491 437.839 313.179 437.839 314.032C437.839 314.875 438.058 315.563 438.495 316.096C438.933 316.619 439.509 316.88 440.223 316.88ZM452.15 315.68L453.19 316.704C452.806 317.195 452.336 317.579 451.782 317.856C451.227 318.123 450.619 318.256 449.958 318.256C449.168 318.256 448.464 318.075 447.846 317.712C447.238 317.349 446.758 316.853 446.406 316.224C446.064 315.584 445.894 314.853 445.894 314.032C445.894 313.2 446.064 312.469 446.406 311.84C446.758 311.2 447.243 310.699 447.862 310.336C448.48 309.973 449.184 309.792 449.974 309.792C451.339 309.792 452.416 310.309 453.206 311.344L452.134 312.368C451.654 311.568 450.944 311.168 450.006 311.168C449.291 311.168 448.704 311.429 448.246 311.952C447.798 312.464 447.574 313.157 447.574 314.032C447.574 314.885 447.803 315.579 448.262 316.112C448.72 316.635 449.312 316.896 450.038 316.896C450.486 316.896 450.886 316.795 451.238 316.592C451.59 316.379 451.894 316.075 452.15 315.68ZM458.545 318V310.048H460.097V315.648L464.193 310.048H465.601V318H464.033V312.432L459.953 318H458.545ZM467.339 318V316.656H467.963C468.209 316.656 468.39 316.587 468.507 316.448C468.635 316.299 468.715 316.043 468.747 315.68L469.211 310.048H474.827V318H473.227V311.376H470.667L470.235 315.968C470.171 316.725 469.979 317.253 469.659 317.552C469.339 317.851 468.849 318 468.187 318H467.339ZM477.358 318V310.048H478.91V315.648L483.006 310.048H484.414V318H482.846V312.432L478.766 318H477.358ZM499.554 306.56V313.488C499.554 314.992 499.159 316.165 498.37 317.008C497.58 317.84 496.492 318.256 495.106 318.256C493.719 318.256 492.626 317.84 491.826 317.008C491.036 316.165 490.642 314.992 490.642 313.488V306.56H492.29V313.488C492.29 314.523 492.535 315.328 493.026 315.904C493.527 316.48 494.22 316.768 495.106 316.768C495.991 316.768 496.679 316.48 497.17 315.904C497.671 315.328 497.922 314.523 497.922 313.488V306.56H499.554ZM504.154 318H502.506V306.56H506.778C507.514 306.56 508.159 306.699 508.714 306.976C509.269 307.253 509.701 307.643 510.01 308.144C510.319 308.645 510.474 309.227 510.474 309.888C510.474 310.72 510.234 311.424 509.754 312C509.274 312.576 508.629 312.949 507.818 313.12L511.562 318H509.514L505.978 313.232H504.154V318ZM506.778 307.984H504.154V311.808H506.778C507.407 311.808 507.903 311.637 508.266 311.296C508.629 310.955 508.81 310.485 508.81 309.888C508.81 309.291 508.629 308.827 508.266 308.496C507.903 308.155 507.407 307.984 506.778 307.984ZM520.733 318H513.693V306.56H515.341V316.56H520.733V318Z" fill="#92969B"/>
</g>
<g clip-path="url(#clip1_4101_19371)">
<path d="M730 314.655C728.577 314.655 727.425 313.452 727.425 311.966V305.689C727.425 304.203 728.577 303 730 303C731.423 303 732.576 304.203 732.576 305.689V311.966C732.576 313.452 731.423 314.655 730 314.655Z" fill="#4285F4"/>
<path d="M730.861 317.712H729.143V321H730.861V317.712Z" fill="#34A853"/>
<path d="M734.302 312C734.298 314.474 732.369 316.487 730 316.487C728.811 316.487 727.732 315.981 726.951 315.162L725.751 316.416C726.838 317.551 728.338 318.256 730 318.256C733.311 318.256 735.996 315.453 736 311.996H734.302V312Z" fill="#EA4335"/>
<path d="M726.951 315.162C726.179 314.351 725.698 313.233 725.698 312H724C724 313.722 724.671 315.284 725.751 316.416L726.951 315.162Z" fill="#FBBC05"/>
</g>
</g>
<defs>
<filter id="filter0_dd_4101_19371" x="188" y="284" width="576" height="60" filterUnits="userSpaceOnUse" color-interpolation-filters="sRGB">
<feFlood flood-opacity="0" result="BackgroundImageFix"/>
<feColorMatrix in="SourceAlpha" type="matrix" values="0 0 0 0 0 0 0 0 0 0 0 0 0 0 0 0 0 0 127 0" result="hardAlpha"/>
<feOffset dy="2"/>
<feGaussianBlur stdDeviation="3"/>
<feComposite in2="hardAlpha" operator="out"/>
<feColorMatrix type="matrix" values="0 0 0 0 0.12549 0 0 0 0 0.129412 0 0 0 0 0.145098 0 0 0 0.2 0"/>
<feBlend mode="normal" in2="BackgroundImageFix" result="effect1_dropShadow_4101_19371"/>
<feColorMatrix in="SourceAlpha" type="matrix" values="0 0 0 0 0 0 0 0 0 0 0 0 0 0 0 0 0 0 127 0" result="hardAlpha"/>
<feOffset dy="2"/>
<feGaussianBlur stdDeviation="1"/>
<feComposite in2="hardAlpha" operator="out"/>
<feColorMatrix type="matrix" values="0 0 0 0 0 0 0 0 0 0 0 0 0 0 0 0 0 0 0.1 0"/>
<feBlend mode="normal" in2="effect1_dropShadow_4101_19371" result="effect2_dropShadow_4101_19371"/>
<feBlend mode="normal" in="SourceGraphic" in2="effect2_dropShadow_4101_19371" result="shape"/>
</filter>
<clipPath id="clip0_4101_19371">
<rect width="312" height="24" fill="white" transform="translate(210 300)"/>
</clipPath>
<clipPath id="clip1_4101_19371">
<rect width="12" height="18" fill="white" transform="translate(724 303)"/>
</clipPath>
</defs>
</svg>
